<svg xmlns="http://www.w3.org/2000/svg" xmlns:xlink="http://www.w3.org/1999/xlink" width="108" height="108" viewBox="0 0 108 108">
  <defs>
    <filter id="Path_904820" x="0" y="0" width="108" height="108" filterUnits="userSpaceOnUse">
      <feOffset dy="3" input="SourceAlpha"/>
      <feGaussianBlur stdDeviation="3" result="blur"/>
      <feFlood flood-opacity="0.161"/>
      <feComposite operator="in" in2="blur"/>
      <feComposite in="SourceGraphic"/>
    </filter>
  </defs>
  <g id="Group_1202661" data-name="Group 1202661" transform="translate(-200 -4986.445)">
    <g id="Group_1181677" data-name="Group 1181677" transform="translate(209 4992.445)">
      <g id="Group_1173585" data-name="Group 1173585" transform="translate(0 0)">
        <g id="Group_1173428" data-name="Group 1173428">
          <g id="Group_1171958" data-name="Group 1171958">
            <g id="Group_1167341" data-name="Group 1167341">
              <g id="Group_1166792" data-name="Group 1166792">
                <g transform="matrix(1, 0, 0, 1, -9, -6)" filter="url(#Path_904820)">
                  <g id="Path_904820-2" data-name="Path 904820" transform="translate(9 6)" fill="#fef9e5">
                    <path d="M 44.99999618530273 88.50003051757812 C 39.12687301635742 88.50003051757812 33.43022155761719 87.35010528564453 28.06829643249512 85.08219146728516 C 22.88852119445801 82.89134216308594 18.23629570007324 79.75461578369141 14.24084663391113 75.75916290283203 C 10.24540901184082 71.76371765136719 7.108683586120605 67.11148834228516 4.917821407318115 61.93171691894531 C 2.649921178817749 56.56978988647461 1.499996185302734 50.87313842773438 1.499996185302734 45.00001525878906 C 1.499996185302734 39.12689208984375 2.649921178817749 33.43024063110352 4.917821407318115 28.06830215454102 C 7.108683586120605 22.88852691650391 10.24540901184082 18.23631477355957 14.24084663391113 14.24086570739746 C 18.23629570007324 10.24541568756104 22.88852119445801 7.10869026184082 28.06829643249512 4.917827606201172 C 33.43022155761719 2.649927854537964 39.12687301635742 1.50000274181366 44.99999618530273 1.50000274181366 C 50.87311935424805 1.50000274181366 56.56977081298828 2.649927854537964 61.93169784545898 4.917827606201172 C 67.11147308349609 7.10869026184082 71.76369476318359 10.24541568756104 75.75914764404297 14.24086570739746 C 79.75458526611328 18.23631477355957 82.89131164550781 22.88852691650391 85.08216857910156 28.06830215454102 C 87.35007476806641 33.43024063110352 88.5 39.12689208984375 88.5 45.00001525878906 C 88.5 50.87313842773438 87.35007476806641 56.56978988647461 85.08216857910156 61.93171691894531 C 82.89131164550781 67.11148834228516 79.75458526611328 71.76371765136719 75.75914764404297 75.75916290283203 C 71.76369476318359 79.75461578369141 67.11147308349609 82.89134216308594 61.93169784545898 85.08219146728516 C 56.56977081298828 87.35010528564453 50.87311935424805 88.50003051757812 44.99999618530273 88.50003051757812 Z" stroke="none"/>
                    <path d="M 44.99999618530273 3 C 39.32870864868164 3 33.82865142822266 4.110061645507812 28.65262603759766 6.299346923828125 C 23.65165710449219 8.414573669433594 19.15968322753906 11.44334411621094 15.301513671875 15.301513671875 C 11.44333648681641 19.15968322753906 8.414566040039062 23.65165710449219 6.299339294433594 28.65262985229492 C 4.110054016113281 33.82867050170898 2.999992370605469 39.32872772216797 2.999992370605469 45.00001525878906 C 2.999992370605469 50.67130279541016 4.110054016113281 56.17136001586914 6.299339294433594 61.34738922119141 C 8.414566040039062 66.34837341308594 11.44333648681641 70.84033203125 15.301513671875 74.69850158691406 C 19.15968322753906 78.55668640136719 23.65165710449219 81.58545684814453 28.65262603759766 83.70068359375 C 33.82865142822266 85.88996887207031 39.32870864868164 87.00003051757812 44.99999618530273 87.00003051757812 C 50.67128372192383 87.00003051757812 56.17134094238281 85.88996887207031 61.34736633300781 83.70068359375 C 66.34834289550781 81.58545684814453 70.84030914306641 78.55668640136719 74.69847869873047 74.69850158691406 C 78.55665588378906 70.84033203125 81.58542633056641 66.34837341308594 83.70065307617188 61.34738922119141 C 85.88993835449219 56.17136001586914 87 50.67130279541016 87 45.00001525878906 C 87 39.32872772216797 85.88993835449219 33.82867050170898 83.70065307617188 28.65262985229492 C 81.58542633056641 23.65165710449219 78.55665588378906 19.15968322753906 74.69847869873047 15.301513671875 C 70.84030914306641 11.44334411621094 66.34834289550781 8.414573669433594 61.34736633300781 6.299346923828125 C 56.17134094238281 4.110061645507812 50.67128372192383 3 44.99999618530273 3 M 44.99999618530273 0 C 69.85281372070312 0 90 20.14718627929688 90 45.00001525878906 C 90 69.85282897949219 69.85281372070312 90.00003051757812 44.99999618530273 90.00003051757812 C 20.14717864990234 90.00003051757812 -7.62939453125e-06 69.85282897949219 -7.62939453125e-06 45.00001525878906 C -7.62939453125e-06 20.14718627929688 20.14717864990234 0 44.99999618530273 0 Z" stroke="none" fill="#866d08"/>
                  </g>
                </g>
              </g>
            </g>
          </g>
        </g>
      </g>
      <g id="_06-Programmer" data-name="06-Programmer" transform="translate(1.735 1.735)">
        <g id="Group_1181524" data-name="Group 1181524" transform="translate(16 18.727)">
          <path id="Path_1043623" data-name="Path 1043623" d="M32,200h5.453v33.627H32Z" transform="translate(-30.182 -181.823)" fill="#ffdb43"/>
          <path id="Path_1043624" data-name="Path 1043624" d="M336,224h8.18a3.635,3.635,0,0,1,3.635,3.635v.909h-5.433l-.02,1.818H336Z" transform="translate(-299.646 -203.097)" fill="#ffdb43"/>
          <path id="Path_1043625" data-name="Path 1043625" d="M179.815,224h-8.18A3.635,3.635,0,0,0,168,227.635v.909h5.433l.02,1.818h6.362Z" transform="translate(-150.732 -203.097)" fill="#ffdb43"/>
          <path id="Path_1043626" data-name="Path 1043626" d="M145.448,272l11.035,3.065a7.271,7.271,0,0,1,5.325,7.006v14.468H120V282.071a7.271,7.271,0,0,1,5.325-7.006L136.359,272Z" transform="translate(-108.185 -245.643)" fill="#ffdb43"/>
          <path id="Path_1043627" data-name="Path 1043627" d="M16,40H30.542a1.818,1.818,0,0,1,1.818,1.818V54.542a1.818,1.818,0,0,1-1.818,1.818H16Z" transform="translate(-16 -40)" fill="#ffdb43"/>
        </g>
        <path id="Path_1043628" data-name="Path 1043628" d="M32.359,41.818v.909H16V40H30.542A1.818,1.818,0,0,1,32.359,41.818Z" transform="translate(0 -21.273)" fill="#40c6f3"/>
        <circle id="Ellipse_12499" data-name="Ellipse 12499" cx="1.5" cy="1.5" r="1.5" transform="translate(54.265 63.265)" fill="#8b5e3c"/>
        <path id="Path_1043629" data-name="Path 1043629" d="M280,280h5.453v23.63H280Z" transform="translate(-234.008 -234.008)" fill="#40c6f3"/>
        <path id="Path_1043630" data-name="Path 1043630" d="M279.271,231.98v4.547a3.635,3.635,0,0,1-7.271,0V231.98Z" transform="translate(-226.917 -191.443)" fill="#febf91"/>
        <path id="Path_1043631" data-name="Path 1043631" d="M376,112h.909a2.727,2.727,0,1,1,0,5.453H376Z" transform="translate(-319.102 -85.094)" fill="#febf91"/>
        <path id="Path_1043632" data-name="Path 1043632" d="M203.635,117.453h-.909a2.727,2.727,0,0,1,0-5.453h.909Z" transform="translate(-163.097 -85.094)" fill="#febf91"/>
        <rect id="Rectangle_417987" data-name="Rectangle 417987" width="17" height="22" rx="8.5" transform="translate(40.265 20.265)" fill="#fecca8"/>
        <path id="Path_1043633" data-name="Path 1043633" d="M321.088,33.088A9.088,9.088,0,0,1,312,24h1.818a7.271,7.271,0,0,1,7.271,7.271Z" transform="translate(-262.373 -7.091)" fill="#6e3515"/>
        <path id="Path_1043634" data-name="Path 1043634" d="M213.453,32.18a8.18,8.18,0,0,0,8.18-8.18h-6.362A7.271,7.271,0,0,0,208,31.271v.909Z" transform="translate(-170.188 -7.091)" fill="#6e3515"/>
        <path id="Path_1043635" data-name="Path 1043635" d="M335.271,224a1.818,1.818,0,0,1,1.818,1.818v.909a1.818,1.818,0,0,1-1.818,1.818A7.271,7.271,0,0,0,328,235.815v4.544a8.18,8.18,0,0,1,8.18-8.18h.909a3.635,3.635,0,0,0,3.635-3.635v-.909A3.635,3.635,0,0,0,337.089,224Z" transform="translate(-276.555 -184.37)" fill="#ffdb43"/>
        <circle id="Ellipse_12500" data-name="Ellipse 12500" cx="1.5" cy="1.5" r="1.5" transform="translate(40.265 63.265)" fill="#8b5e3c"/>
        <path id="Path_1043636" data-name="Path 1043636" d="M173.453,224a1.818,1.818,0,0,0-1.818,1.818v.909a1.818,1.818,0,0,0,1.818,1.818,7.271,7.271,0,0,1,7.271,7.271v4.544a8.18,8.18,0,0,0-8.18-8.18h-.909A3.635,3.635,0,0,1,168,228.544v-.909A3.635,3.635,0,0,1,171.635,224Z" transform="translate(-134.732 -184.37)" fill="#ffdb43"/>
        <path id="Path_1043637" data-name="Path 1043637" d="M30.542,32H16v1.818H30.542a.91.91,0,0,1,.909.909v.909H16v1.818H31.45v10a.91.91,0,0,1-.909.909H16v1.818H30.542a2.73,2.73,0,0,0,2.727-2.727V34.727A2.73,2.73,0,0,0,30.542,32Z" transform="translate(0 -14.182)"/>
        <path id="Path_1043638" data-name="Path 1043638" d="M107.628,105.081l2.727-2.727a.909.909,0,0,0,0-1.285l-2.727-2.727-1.285,1.285,2.084,2.084-2.084,2.084Z" transform="translate(-80.08 -72.988)"/>
        <path id="Path_1043639" data-name="Path 1043639" d="M18.992,98.343l-2.727,2.727a.909.909,0,0,0,0,1.285l2.727,2.727,1.285-1.285-2.084-2.084,2.084-2.084Z" transform="translate(0 -72.988)"/>
        <path id="Path_1043640" data-name="Path 1043640" d="M0,0H8.129V1.818H0Z" transform="translate(20.633 31.952) rotate(-63.435)"/>
        <path id="Path_1043641" data-name="Path 1043641" d="M19.635,210.727a.91.91,0,0,1,.909-.909V208a2.73,2.73,0,0,0-2.727,2.727v.909a.91.91,0,0,1-.909.909.909.909,0,0,0,0,1.818.91.91,0,0,1,.909.909v.909a2.73,2.73,0,0,0,2.727,2.727v-1.818a.91.91,0,0,1-.909-.909v-.909a2.715,2.715,0,0,0-.7-1.818,2.715,2.715,0,0,0,.7-1.818Z" transform="translate(0 -170.188)"/>
        <path id="Path_1043642" data-name="Path 1043642" d="M59.635,388.544a.91.91,0,0,1-.909-.909v-.909A2.73,2.73,0,0,0,56,384v1.818a.91.91,0,0,1,.909.909v.909a2.722,2.722,0,0,1,0,3.635v.909a.91.91,0,0,1-.909.909v1.818a2.73,2.73,0,0,0,2.727-2.727v-.909a.91.91,0,0,1,.909-.909.909.909,0,0,0,0-1.818Z" transform="translate(-35.456 -326.193)"/>
        <path id="Path_1043643" data-name="Path 1043643" d="M16,320h9.088v1.818H16Z" transform="translate(0 -269.464)"/>
        <path id="Path_1043644" data-name="Path 1043644" d="M48,352h5.453v1.818H48Z" transform="translate(-28.365 -297.828)"/>
        <path id="Path_1043645" data-name="Path 1043645" d="M16,352h1.818v1.818H16Z" transform="translate(0 -297.828)"/>
        <path id="Path_1043646" data-name="Path 1043646" d="M96,248h3.635v1.818H96Z" transform="translate(-70.912 -205.643)"/>
        <path id="Path_1043647" data-name="Path 1043647" d="M64,248h1.818v1.818H64Z" transform="translate(-42.547 -205.643)"/>
        <path id="Path_1043648" data-name="Path 1043648" d="M16,424h3.635v1.818H16Z" transform="translate(0 -361.649)"/>
        <path id="Path_1043649" data-name="Path 1043649" d="M149.634,47.273l-.551-.153a4.523,4.523,0,0,0,1.088-2.945v-.909a4.549,4.549,0,0,0-4.544-4.544h-3.58a8.209,8.209,0,0,0,.853-3.635V33.268a3.635,3.635,0,0,0,1.71-6.842.9.9,0,0,0,.107-.429V24.18a8.189,8.189,0,0,0-8.18-8.18h-6.362A8.189,8.189,0,0,0,122,24.18v.909a.909.909,0,0,0,.909.909h1.818a3.635,3.635,0,0,0,0,7.271v1.818a8.209,8.209,0,0,0,.853,3.635H122a4.549,4.549,0,0,0-4.544,4.544v.909a4.523,4.523,0,0,0,1.088,2.945l-.55.153A8.2,8.2,0,0,0,112,55.154V69.622a.909.909,0,0,0,.909.909h41.807a.909.909,0,0,0,.909-.909V55.154a8.2,8.2,0,0,0-5.99-7.882Zm-3.1-4.916v-.909a2.721,2.721,0,0,0-.117-.792,2.732,2.732,0,0,1,1.935,2.609v.909a2.73,2.73,0,0,1-2.727,2.727h-.909a9.079,9.079,0,0,0-7.192,3.537,6.372,6.372,0,0,1,6.283-5.355,2.73,2.73,0,0,0,2.727-2.727ZM135.521,22.494a10.1,10.1,0,0,0,5.422,3.994,6.368,6.368,0,0,1,.139,1.327h-4.544a1.818,1.818,0,0,0-1.572.909h-2.31a1.818,1.818,0,0,0-1.572-.909h-4.544A6.335,6.335,0,0,1,126.805,26h1.554a9.075,9.075,0,0,0,7.161-3.5Zm3.744,8.957V29.632h1.818V31.45a.91.91,0,0,1-.909.909h-2.727a.91.91,0,0,1-.909-.909V29.633h.909V31.45Zm-12.724-1.818h1.818V31.45h1.818V29.632h.909V31.45a.91.91,0,0,1-.909.909H127.45a.91.91,0,0,1-.909-.909Zm0,4.388a2.714,2.714,0,0,0,.909.156h2.727A2.73,2.73,0,0,0,132.9,31.45v-.909h1.818v.909a2.73,2.73,0,0,0,2.727,2.727h2.727a2.714,2.714,0,0,0,.909-.156v1.065a6.29,6.29,0,0,1-1.394,3.976,6.39,6.39,0,0,1-2.583,1.924,6.3,6.3,0,0,1-2.384.462H132.9a6.307,6.307,0,0,1-2.386-.463,6.39,6.39,0,0,1-2.582-1.923,6.291,6.291,0,0,1-1.394-3.976Zm17.268,6.518a.91.91,0,0,1,.909.909v.909a.91.91,0,0,1-.909.909,8.13,8.13,0,0,0-4.267,1.2l-.943-.262a.909.909,0,0,0-.243-.033V42.413a8.216,8.216,0,0,0,2.461-1.875Zm-13.642,15.1v2.172h.009v1.441l-2.35-2.35,2.228-2.228a7.251,7.251,0,0,1,.113.965Zm1.6-8.748a2.723,2.723,0,0,1-.682-1.8V43.061a8.18,8.18,0,0,0,1.818.2h1.818a8.183,8.183,0,0,0,1.817-.2v2.022a2.727,2.727,0,0,1-4.771,1.8Zm5.68,10.92h.009V55.635a7.252,7.252,0,0,1,.114-.965L139.8,56.9l-2.35,2.35ZM142.9,31.45V27.815a1.818,1.818,0,1,1,0,3.635Zm0-7.271v.859a8.133,8.133,0,0,1-1-.174,8.241,8.241,0,0,1-5.313-4.109,9.013,9.013,0,0,0,.8-2.878A6.37,6.37,0,0,1,142.9,24.18Zm-19.086,0a6.369,6.369,0,0,1,6.362-6.362h5.4a7.282,7.282,0,0,1-7.214,6.362Zm-.909,5.453a1.82,1.82,0,0,1,1.818-1.818V31.45A1.82,1.82,0,0,1,122.906,29.633Zm0,11.815a.91.91,0,0,1,.909-.909h2.992a8.217,8.217,0,0,0,2.461,1.875v1.761a.909.909,0,0,0-.243.033l-.943.262a8.13,8.13,0,0,0-4.267-1.2.91.91,0,0,1-.909-.909Zm-3.635,1.818a2.732,2.732,0,0,1,1.935-2.609,2.72,2.72,0,0,0-.117.792v.909a2.73,2.73,0,0,0,2.727,2.727,6.372,6.372,0,0,1,6.282,5.354,9.078,9.078,0,0,0-7.191-3.537H122a2.73,2.73,0,0,1-2.727-2.727Zm-5.453,11.889a6.38,6.38,0,0,1,4.659-6.13l2.019-.561a4.522,4.522,0,0,0,1.5.256h.909a7.278,7.278,0,0,1,6.5,4.026l-3.51,3.511a.906.906,0,0,0-.267.643v4.7a2.727,2.727,0,1,0,1.818,0V59.092l2.727,2.727v6.894h-9.089v-8.18h-1.818v8.18h-5.453Zm13.633,9.015a.909.909,0,1,1-.909-.909A.909.909,0,0,1,127.45,64.169Zm4.544-2.727v-12.2a4.525,4.525,0,0,0,3.635,0V68.713h-3.635Zm21.812,7.271h-5.453v-8.18h-1.818v8.18h-9.088V61.819l2.727-2.727V61.6a2.727,2.727,0,1,0,1.818,0V56.9a.906.906,0,0,0-.266-.643l-3.51-3.511a7.278,7.278,0,0,1,6.5-4.026h.909a4.522,4.522,0,0,0,1.5-.256l2.019.561a6.381,6.381,0,0,1,4.659,6.13Zm-11.815-4.544a.909.909,0,1,1-.909-.909A.909.909,0,0,1,141.992,64.169Z" transform="translate(-85.094)"/>
        <path id="Path_1043650" data-name="Path 1043650" d="M292.278,196.537l.909-.909-1.285-1.285-.643.643H288V196.8h3.635a.909.909,0,0,0,.643-.266Z" transform="translate(-241.099 -158.082)"/>
      </g>
    </g>
  </g>
</svg>
