<svg xmlns="http://www.w3.org/2000/svg" xmlns:xlink="http://www.w3.org/1999/xlink" width="113" height="113" viewBox="0 0 113 113">
  <defs>
    <filter id="Path_982547" x="0" y="0" width="113" height="113" filterUnits="userSpaceOnUse">
      <feOffset dy="3" input="SourceAlpha"/>
      <feGaussianBlur stdDeviation="3" result="blur"/>
      <feFlood flood-opacity="0.161"/>
      <feComposite operator="in" in2="blur"/>
      <feComposite in="SourceGraphic"/>
    </filter>
  </defs>
  <g id="Group_1202687" data-name="Group 1202687" transform="translate(-587.088 -6431.772)">
    <g id="Group_1202634" data-name="Group 1202634">
      <g id="Group_1202604" data-name="Group 1202604" transform="translate(316.088 5561.358)">
        <g id="Group_1174813" data-name="Group 1174813" transform="translate(280 876.414)">
          <g id="Group_1201680" data-name="Group 1201680">
            <g id="Group_1201330" data-name="Group 1201330">
              <g id="Group_1172010" data-name="Group 1172010">
                <g id="Group_1171046" data-name="Group 1171046">
                  <g id="Group_1148525" data-name="Group 1148525">
                    <g transform="matrix(1, 0, 0, 1, -9, -6)" filter="url(#Path_982547)">
                      <g id="Path_982547-2" data-name="Path 982547" transform="translate(9 6)" fill="#e5fdfa">
                        <path d="M 47.5 93.5 C 41.28937149047852 93.5 35.26533508300781 92.28397369384766 29.59518623352051 89.88570404052734 C 24.11771965026855 87.56893157958984 19.19813346862793 84.25196075439453 14.97309303283691 80.02691650390625 C 10.74804019927979 75.80186462402344 7.431066513061523 70.88229370117188 5.114293098449707 65.40481567382812 C 2.716026782989502 59.73468017578125 1.5 53.71062850952148 1.5 47.5 C 1.5 41.28937149047852 2.716026782989502 35.26533508300781 5.114293098449707 29.59518623352051 C 7.431066513061523 24.11771965026855 10.74804019927979 19.19813346862793 14.97309303283691 14.97309303283691 C 19.19813346862793 10.74804019927979 24.11771965026855 7.431066513061523 29.59518623352051 5.114293098449707 C 35.26533508300781 2.716026782989502 41.28937149047852 1.5 47.5 1.5 C 53.71062850952148 1.5 59.73468017578125 2.716026782989502 65.40481567382812 5.114293098449707 C 70.88229370117188 7.431066513061523 75.80186462402344 10.74804019927979 80.02691650390625 14.97309303283691 C 84.25196075439453 19.19813346862793 87.56893157958984 24.11771965026855 89.88570404052734 29.59518623352051 C 92.28397369384766 35.26533508300781 93.5 41.28937149047852 93.5 47.5 C 93.5 53.71062850952148 92.28397369384766 59.73468017578125 89.88570404052734 65.40481567382812 C 87.56893157958984 70.88229370117188 84.25196075439453 75.80186462402344 80.02691650390625 80.02691650390625 C 75.80186462402344 84.25196075439453 70.88229370117188 87.56893157958984 65.40481567382812 89.88570404052734 C 59.73468017578125 92.28397369384766 53.71062850952148 93.5 47.5 93.5 Z" stroke="none"/>
                        <path d="M 47.5 3 C 41.49121475219727 3 35.66376876831055 4.176155090332031 30.17950439453125 6.495796203613281 C 24.88084411621094 8.736953735351562 20.12152099609375 11.94598388671875 16.03375244140625 16.03375244140625 C 11.94598388671875 20.12152099609375 8.736953735351562 24.88084411621094 6.495796203613281 30.17950439453125 C 4.176155090332031 35.66376876831055 3 41.49121475219727 3 47.5 C 3 53.50878524780273 4.176155090332031 59.33623123168945 6.495796203613281 64.82049560546875 C 8.736953735351562 70.11915588378906 11.94598388671875 74.87847900390625 16.03375244140625 78.96624755859375 C 20.12152099609375 83.05401611328125 24.88084411621094 86.26304626464844 30.17950439453125 88.50419616699219 C 35.66376876831055 90.82384490966797 41.49121475219727 92 47.5 92 C 53.50878524780273 92 59.33623123168945 90.82384490966797 64.82049560546875 88.50419616699219 C 70.11915588378906 86.26304626464844 74.87847900390625 83.05401611328125 78.96624755859375 78.96624755859375 C 83.05401611328125 74.87847900390625 86.26304626464844 70.11915588378906 88.50419616699219 64.82049560546875 C 90.82384490966797 59.33623123168945 92 53.50878524780273 92 47.5 C 92 41.49121475219727 90.82384490966797 35.66376876831055 88.50419616699219 30.17950439453125 C 86.26304626464844 24.88084411621094 83.05401611328125 20.12152099609375 78.96624755859375 16.03375244140625 C 74.87847900390625 11.94598388671875 70.11915588378906 8.736953735351562 64.82049560546875 6.495796203613281 C 59.33623123168945 4.176155090332031 53.50878524780273 3 47.5 3 M 47.5 0 C 73.7335205078125 0 95 21.2664794921875 95 47.5 C 95 73.7335205078125 73.7335205078125 95 47.5 95 C 21.2664794921875 95 0 73.7335205078125 0 47.5 C 0 21.2664794921875 21.2664794921875 0 47.5 0 Z" stroke="none" fill="#098576"/>
                      </g>
                    </g>
                  </g>
                </g>
              </g>
            </g>
          </g>
        </g>
      </g>
      <g id="subscription_13731423" transform="translate(605.072 6418.03)">
        <g id="Group_1202633" data-name="Group 1202633" transform="translate(8.047 42.727)">
          <g id="Group_1202630" data-name="Group 1202630" transform="translate(0 0)">
            <path id="Path_1043994" data-name="Path 1043994" d="M169.777,345.057h18.606v10.6H169.777Z" transform="translate(-149.482 -306.327)" fill="#a79ba7" fill-rule="evenodd"/>
            <path id="Path_1043995" data-name="Path 1043995" d="M300.67,345.057h1.444v10.6H300.67Z" transform="translate(-263.213 -306.327)" fill="#837683" fill-rule="evenodd"/>
            <path id="Path_1043996" data-name="Path 1043996" d="M87.359,419.226h40.222v-3.1c0-1.7-1.748-3.1-3.881-3.1H91.24c-2.136,0-3.881,1.4-3.881,3.1Z" transform="translate(-77.871 -365.383)" fill="#eceff1" fill-rule="evenodd"/>
            <path id="Path_1043997" data-name="Path 1043997" d="M87.359,423.326h40.222v-3.1a2.958,2.958,0,0,0-1.566-2.482,2.558,2.558,0,0,1,.332,1.252v3.1H87.359Z" transform="translate(-77.871 -369.483)" fill="#d1d1d6" fill-rule="evenodd"/>
            <path id="Path_1043998" data-name="Path 1043998" d="M19.541,49.675h50.1a4.566,4.566,0,0,1,4.552,4.552V85.534a4.566,4.566,0,0,1-4.552,4.552h-50.1a4.563,4.563,0,0,1-4.548-4.552V54.227a4.563,4.563,0,0,1,4.548-4.552Z" transform="translate(-14.993 -49.675)" fill="#eceff1" fill-rule="evenodd"/>
            <path id="Path_1043999" data-name="Path 1043999" d="M77.322,55.621a4.555,4.555,0,0,1,2.014,3.772V90.7a4.566,4.566,0,0,1-4.552,4.552h-50.1a4.565,4.565,0,0,1-3.772-2.01,4.534,4.534,0,0,0,2.538.776h50.1A4.563,4.563,0,0,0,78.1,89.47V58.159A4.51,4.51,0,0,0,77.322,55.621Z" transform="translate(-20.137 -54.841)" fill="#d1d1d6" fill-rule="evenodd"/>
            <path id="Path_1044000" data-name="Path 1044000" d="M44.637,78.712H94.963a.631.631,0,0,1,.629.629v28.343H44V79.341A.632.632,0,0,1,44.637,78.712Z" transform="translate(-40.2 -74.905)" fill="#d8ecfe" fill-rule="evenodd"/>
            <path id="Path_1044001" data-name="Path 1044001" d="M413.832,78.712H416.3a.631.631,0,0,1,.629.629v28.343h-2.465V79.341a.634.634,0,0,0-.633-.629Z" transform="translate(-361.537 -74.905)" fill="#c4e2ff" fill-rule="evenodd"/>
          </g>
          <g id="Group_1202631" data-name="Group 1202631" transform="translate(10.685 11.062)">
            <path id="Path_1044002" data-name="Path 1044002" d="M137.838,137.405a3.362,3.362,0,0,0-3.36-3.36H99.848a3.362,3.362,0,0,0-3.36,3.36v6.72a3.362,3.362,0,0,0,3.36,3.36h34.63a3.362,3.362,0,0,0,3.36-3.36Z" transform="translate(-96.488 -134.045)" fill="#ffe177" fill-rule="evenodd"/>
            <path id="Path_1044003" data-name="Path 1044003" d="M366.232,147.485a3.362,3.362,0,0,0,3.36-3.36v-6.72a3.362,3.362,0,0,0-3.36-3.36h2.622a3.362,3.362,0,0,1,3.36,3.36v6.72a3.362,3.362,0,0,1-3.36,3.36Z" transform="translate(-330.864 -134.045)" fill="#ffd064" fill-rule="evenodd"/>
          </g>
          <g id="Group_1202632" data-name="Group 1202632" transform="translate(13.831 19.419)">
            <path id="Path_1044004" data-name="Path 1044004" d="M134.225,208.484v-8.845a1.858,1.858,0,0,0-3.717,0v7.26a1.894,1.894,0,0,0-3.745.361,1.719,1.719,0,0,0-3.264.752v.28a1.677,1.677,0,0,0-3.023,1v7.786a4.256,4.256,0,0,0,.571,2.179,1.528,1.528,0,0,1,.193.756v1.695a.6.6,0,0,0,.6.6h10.68a.6.6,0,0,0,.6-.6v-1.695a1.5,1.5,0,0,1,.762-1.327l1.887-1.1a3.635,3.635,0,0,0,1.947-2.8l.29-3.258a2.929,2.929,0,0,0-3.139-3.045Z" transform="translate(-120.477 -197.781)" fill="#f6dccd" fill-rule="evenodd"/>
            <path id="Path_1044005" data-name="Path 1044005" d="M122.957,207.819a1.667,1.667,0,0,0-.8-.2,1.684,1.684,0,0,0-1.679,1.679v7.786a4.256,4.256,0,0,0,.571,2.179,1.528,1.528,0,0,1,.193.756v1.695a.6.6,0,0,0,.6.6h1.6a.6.6,0,0,1-.6-.6v-1.695a1.542,1.542,0,0,0-.193-.756,4.258,4.258,0,0,1-.571-2.179v-7.786A1.684,1.684,0,0,1,122.957,207.819Zm3.807-.559a1.9,1.9,0,0,1,1.892-1.857,1.875,1.875,0,0,1,.8.178,1.9,1.9,0,0,0-1.092,1.679v1.2a.8.8,0,1,1-1.6,0Zm-.743-.766a1.722,1.722,0,0,0-.918,1.518v.849a.8.8,0,1,1-1.6,0v-.849a1.724,1.724,0,0,1,1.719-1.718A1.706,1.706,0,0,1,126.021,206.494Zm7.147-8.53a1.836,1.836,0,0,0-.8-.183,1.864,1.864,0,0,0-1.858,1.858v8.845a.8.8,0,0,0,1.6,0v-8.845A1.866,1.866,0,0,1,133.168,197.964Zm2.66,10.638a3.836,3.836,0,0,0-.959-.117h-.643v3.8a.8.8,0,1,0,1.6,0Z" transform="translate(-120.477 -197.781)" fill="#f1cbbc" fill-rule="evenodd"/>
            <path id="Path_1044006" data-name="Path 1044006" d="M138.18,367.353H126.3v1.695a.6.6,0,0,0,.6.6h10.68a.6.6,0,0,0,.6-.6Z" transform="translate(-125.536 -345.119)" fill="#eceff1" fill-rule="evenodd"/>
            <path id="Path_1044007" data-name="Path 1044007" d="M127.9,367.353h-1.6v1.741l0,.029,0,.016v.014a.053.053,0,0,1,0,.015l0,.014.013.044,0,.013,0,.015.006.013a.043.043,0,0,0,.006.015.205.205,0,0,0,.012.026l.006.013.015.026c0,.009.01.016.014.025l.017.023.007.013.009.01.019.023.02.022.02.02.02.019c.007.006.014.013.023.019l.023.017.012.007.012.009.025.014.026.015.013.006.026.013.015.006.013,0,.014,0,.013.006.014,0,.015,0,.014,0,.044.009H128.5a.6.6,0,0,1-.6-.6Z" transform="translate(-125.536 -345.119)" fill="#d1d1d6" fill-rule="evenodd"/>
          </g>
        </g>
        <path id="Path_1044008" data-name="Path 1044008" d="M21.559,84.188H12.6a5.618,5.618,0,0,1-5.6-5.6V47.28a5.619,5.619,0,0,1,5.6-5.6H62.694a5.619,5.619,0,0,1,5.6,5.6V68.643a1.049,1.049,0,1,1-2.1,0V47.28a3.514,3.514,0,0,0-3.5-3.5H12.6a3.514,3.514,0,0,0-3.5,3.5V78.586a3.514,3.514,0,0,0,3.5,3.5h8.264a5.9,5.9,0,0,1-.034-.645V76.522H11.853A1.049,1.049,0,0,1,10.8,75.473V47.168a1.682,1.682,0,0,1,1.684-1.68H62.81a1.682,1.682,0,0,1,1.68,1.68V67.278a1.049,1.049,0,0,1-2.1,0V47.586H12.9V74.424h7.928v-.763a2.73,2.73,0,0,1,3.387-2.647,2.761,2.761,0,0,1,3.528-1.164,2.935,2.935,0,0,1,3.116-1.017v-.554H22.093a4.411,4.411,0,0,1-4.409-4.409V57.15a4.411,4.411,0,0,1,4.409-4.409h34.63a4.411,4.411,0,0,1,4.409,4.409v6.72a4.411,4.411,0,0,1-4.409,4.409H36.674v3.545a3.9,3.9,0,0,1,3.553,2.6h8.049a1.049,1.049,0,1,1,0,2.1H40.4l-.242,2.723a4.374,4.374,0,0,1-1.42,2.845h9.875a1.049,1.049,0,1,1,0,2.1H48v5.134h5.878c2.768,0,4.93,1.937,4.93,4.147v3.1a1.049,1.049,0,0,1-1.049,1.049H17.538a1.049,1.049,0,0,1-1.049-1.049v-3.1c0-2.21,2.162-4.147,4.93-4.147H27.3v-1.6H22.642a1.049,1.049,0,0,1-1.049-1.049v-2.3a.51.51,0,0,0-.034-.192Zm1.368-10.527v7.784a3.266,3.266,0,0,0,.438,1.666q.06.107.11.219H33.686a2.539,2.539,0,0,1,1.069-1.183l1.888-1.1a2.6,2.6,0,0,0,1.429-1.987h0s.285-3.209.285-3.21a1.964,1.964,0,0,0-2.117-1.95h0l-.642-.017a1.049,1.049,0,0,1-1.02-1.049V64.006a.809.809,0,1,0-1.618,0v7.261a1.049,1.049,0,0,1-2.074.222.844.844,0,0,0-1.67.155,1.049,1.049,0,0,1-1.989.447.669.669,0,0,0-1.273.289v.279a1.049,1.049,0,0,1-1.89.627.629.629,0,0,0-1.135.374Zm13.747-7.479H56.723a2.312,2.312,0,0,0,2.311-2.311V57.15a2.312,2.312,0,0,0-2.311-2.311H22.093a2.312,2.312,0,0,0-2.311,2.311v6.72a2.312,2.312,0,0,0,2.311,2.311h8.768V64.006a2.907,2.907,0,1,1,5.814,0ZM45.9,84.187H35.609a.5.5,0,0,0-.037.192v2.3a1.049,1.049,0,0,1-1.049,1.049H29.395v1.6H45.9ZM23.691,85.428v.2h9.783v-.2Zm-5.1,10.093H56.711V93.468c0-1.2-1.33-2.049-2.832-2.049H21.419c-1.5,0-2.832.85-2.832,2.049Zm34.82-17.566a7.979,7.979,0,0,0,7.845,9.4,7.932,7.932,0,0,0,3.435-.777,1.049,1.049,0,0,1,.906,1.892A10.075,10.075,0,0,1,51.418,77.2a1.049,1.049,0,0,1-.3-2.012l1.591-.665a1.049,1.049,0,0,1,1.338.488l.788,1.534a1.049,1.049,0,0,1-1.425,1.406Zm17.678,3.606a1.049,1.049,0,0,1,.3,2.012l-1.591.665a1.049,1.049,0,0,1-1.338-.488l-.788-1.534A1.049,1.049,0,0,1,69.1,80.811a7.979,7.979,0,0,0-7.845-9.4,7.933,7.933,0,0,0-3.435.777A1.049,1.049,0,0,1,56.91,70.3,10.075,10.075,0,0,1,71.085,81.562Z" transform="translate(0 0)" fill-rule="evenodd"/>
      </g>
    </g>
  </g>
</svg>
