<svg xmlns="http://www.w3.org/2000/svg" xmlns:xlink="http://www.w3.org/1999/xlink" width="113" height="113" viewBox="0 0 113 113">
  <defs>
    <filter id="Path_982547" x="0" y="0" width="113" height="113" filterUnits="userSpaceOnUse">
      <feOffset dy="3" input="SourceAlpha"/>
      <feGaussianBlur stdDeviation="3" result="blur"/>
      <feFlood flood-opacity="0.161"/>
      <feComposite operator="in" in2="blur"/>
      <feComposite in="SourceGraphic"/>
    </filter>
  </defs>
  <g id="Group_1202688" data-name="Group 1202688" transform="translate(-902.088 -6431.772)">
    <g id="Group_1202636" data-name="Group 1202636">
      <g id="Group_1202605" data-name="Group 1202605" transform="translate(631.088 5561.358)">
        <g id="Group_1174813" data-name="Group 1174813" transform="translate(280 876.414)">
          <g id="Group_1201680" data-name="Group 1201680">
            <g id="Group_1201330" data-name="Group 1201330">
              <g id="Group_1172010" data-name="Group 1172010">
                <g id="Group_1171046" data-name="Group 1171046">
                  <g id="Group_1148525" data-name="Group 1148525">
                    <g transform="matrix(1, 0, 0, 1, -9, -6)" filter="url(#Path_982547)">
                      <g id="Path_982547-2" data-name="Path 982547" transform="translate(9 6)" fill="#e5fdfa">
                        <path d="M 47.5 93.5 C 41.28937149047852 93.5 35.26533508300781 92.28397369384766 29.59518623352051 89.88570404052734 C 24.11771965026855 87.56893157958984 19.19813346862793 84.25196075439453 14.97309303283691 80.02691650390625 C 10.74804019927979 75.80186462402344 7.431066513061523 70.88229370117188 5.114293098449707 65.40481567382812 C 2.716026782989502 59.73468017578125 1.5 53.71062850952148 1.5 47.5 C 1.5 41.28937149047852 2.716026782989502 35.26533508300781 5.114293098449707 29.59518623352051 C 7.431066513061523 24.11771965026855 10.74804019927979 19.19813346862793 14.97309303283691 14.97309303283691 C 19.19813346862793 10.74804019927979 24.11771965026855 7.431066513061523 29.59518623352051 5.114293098449707 C 35.26533508300781 2.716026782989502 41.28937149047852 1.5 47.5 1.5 C 53.71062850952148 1.5 59.73468017578125 2.716026782989502 65.40481567382812 5.114293098449707 C 70.88229370117188 7.431066513061523 75.80186462402344 10.74804019927979 80.02691650390625 14.97309303283691 C 84.25196075439453 19.19813346862793 87.56893157958984 24.11771965026855 89.88570404052734 29.59518623352051 C 92.28397369384766 35.26533508300781 93.5 41.28937149047852 93.5 47.5 C 93.5 53.71062850952148 92.28397369384766 59.73468017578125 89.88570404052734 65.40481567382812 C 87.56893157958984 70.88229370117188 84.25196075439453 75.80186462402344 80.02691650390625 80.02691650390625 C 75.80186462402344 84.25196075439453 70.88229370117188 87.56893157958984 65.40481567382812 89.88570404052734 C 59.73468017578125 92.28397369384766 53.71062850952148 93.5 47.5 93.5 Z" stroke="none"/>
                        <path d="M 47.5 3 C 41.49121475219727 3 35.66376876831055 4.176155090332031 30.17950439453125 6.495796203613281 C 24.88084411621094 8.736953735351562 20.12152099609375 11.94598388671875 16.03375244140625 16.03375244140625 C 11.94598388671875 20.12152099609375 8.736953735351562 24.88084411621094 6.495796203613281 30.17950439453125 C 4.176155090332031 35.66376876831055 3 41.49121475219727 3 47.5 C 3 53.50878524780273 4.176155090332031 59.33623123168945 6.495796203613281 64.82049560546875 C 8.736953735351562 70.11915588378906 11.94598388671875 74.87847900390625 16.03375244140625 78.96624755859375 C 20.12152099609375 83.05401611328125 24.88084411621094 86.26304626464844 30.17950439453125 88.50419616699219 C 35.66376876831055 90.82384490966797 41.49121475219727 92 47.5 92 C 53.50878524780273 92 59.33623123168945 90.82384490966797 64.82049560546875 88.50419616699219 C 70.11915588378906 86.26304626464844 74.87847900390625 83.05401611328125 78.96624755859375 78.96624755859375 C 83.05401611328125 74.87847900390625 86.26304626464844 70.11915588378906 88.50419616699219 64.82049560546875 C 90.82384490966797 59.33623123168945 92 53.50878524780273 92 47.5 C 92 41.49121475219727 90.82384490966797 35.66376876831055 88.50419616699219 30.17950439453125 C 86.26304626464844 24.88084411621094 83.05401611328125 20.12152099609375 78.96624755859375 16.03375244140625 C 74.87847900390625 11.94598388671875 70.11915588378906 8.736953735351562 64.82049560546875 6.495796203613281 C 59.33623123168945 4.176155090332031 53.50878524780273 3 47.5 3 M 47.5 0 C 73.7335205078125 0 95 21.2664794921875 95 47.5 C 95 73.7335205078125 73.7335205078125 95 47.5 95 C 21.2664794921875 95 0 73.7335205078125 0 47.5 C 0 21.2664794921875 21.2664794921875 0 47.5 0 Z" stroke="none" fill="#098576"/>
                      </g>
                    </g>
                  </g>
                </g>
              </g>
            </g>
          </g>
        </g>
      </g>
      <g id="Page-1" transform="translate(929.088 6459)">
        <g id="_026---Tree-Branch-UI" data-name="026---Tree-Branch-UI">
          <path id="Shape" d="M59,43v3a6,6,0,0,1-6,6H7a6,6,0,0,1-6-6V43a1,1,0,0,1,1-1H20v2a3,3,0,0,0,3,3H37a3,3,0,0,0,3-3V42H58A1,1,0,0,1,59,43Z" fill="#607d8b"/>
          <path id="Shape-2" data-name="Shape" d="M58,42H55a1,1,0,0,1,1,1v3a6,6,0,0,1-6,6h3a6,6,0,0,0,6-6V43A1,1,0,0,0,58,42Z" fill="#37474f"/>
          <path id="Shape-3" data-name="Shape" d="M40,42v2a3,3,0,0,1-3,3H23a3,3,0,0,1-3-3V42Z" fill="#37474f"/>
          <path id="Shape-4" data-name="Shape" d="M57,5V42H3V5A4,4,0,0,1,7,1H53A4,4,0,0,1,57,5Z" fill="#00bcd4"/>
          <path id="Shape-5" data-name="Shape" d="M53,1H50a4,4,0,0,1,4,4V42h3V5A4,4,0,0,0,53,1Z" fill="#00838f"/>
          <rect id="Rectangle-path" width="20" height="10" rx="2" transform="translate(20 7)" fill="#ff9801"/>
          <rect id="Rectangle-path-2" data-name="Rectangle-path" width="12" height="10" rx="2" transform="translate(8 26)" fill="#ef314c"/>
          <rect id="Rectangle-path-3" data-name="Rectangle-path" width="12" height="10" rx="2" transform="translate(24 26)" fill="#ef314c"/>
          <rect id="Rectangle-path-4" data-name="Rectangle-path" width="12" height="10" rx="2" transform="translate(40 26)" fill="#ef314c"/>
          <circle id="Oval" cx="1" cy="1" r="1" transform="translate(5 45)" fill="#a4c400"/>
          <circle id="Oval-2" data-name="Oval" cx="1" cy="1" r="1" transform="translate(8 45)" fill="#ffdc00"/>
          <g id="Group_1202635" data-name="Group 1202635">
            <path id="Shape-6" data-name="Shape" d="M26,13H24a1,1,0,0,1,0-2h2a1,1,0,0,1,0,2Z" fill="#f5f5f5"/>
            <path id="Shape-7" data-name="Shape" d="M36,13H34a1,1,0,0,1,0-2h2a1,1,0,0,1,0,2Z" fill="#f5f5f5"/>
            <path id="Shape-8" data-name="Shape" d="M31,13H29a1,1,0,0,1,0-2h2a1,1,0,0,1,0,2Z" fill="#f5f5f5"/>
            <circle id="Oval-3" data-name="Oval" cx="1" cy="1" r="1" transform="translate(11 30)" fill="#f5f5f5"/>
            <circle id="Oval-4" data-name="Oval" cx="1" cy="1" r="1" transform="translate(15 30)" fill="#f5f5f5"/>
            <circle id="Oval-5" data-name="Oval" cx="1" cy="1" r="1" transform="translate(27 30)" fill="#f5f5f5"/>
            <circle id="Oval-6" data-name="Oval" cx="1" cy="1" r="1" transform="translate(31 30)" fill="#f5f5f5"/>
            <circle id="Oval-7" data-name="Oval" cx="1" cy="1" r="1" transform="translate(43 30)" fill="#f5f5f5"/>
            <circle id="Oval-8" data-name="Oval" cx="1" cy="1" r="1" transform="translate(47 30)" fill="#f5f5f5"/>
          </g>
          <path id="Shape-9" data-name="Shape" d="M58,41V5a5.006,5.006,0,0,0-5-5H7A5.006,5.006,0,0,0,2,5V41a2,2,0,0,0-2,2v3a7.008,7.008,0,0,0,7,7H53a7.008,7.008,0,0,0,7-7V43A2,2,0,0,0,58,41ZM4,5A3,3,0,0,1,7,2H53a3,3,0,0,1,3,3V41H4ZM21,43H39v1a2,2,0,0,1-2,2H23a2,2,0,0,1-2-2Zm37,3a5.006,5.006,0,0,1-5,5H7a5.006,5.006,0,0,1-5-5V43H19v1a4,4,0,0,0,4,4H37a4,4,0,0,0,4-4V43H58Z"/>
          <path id="Shape-10" data-name="Shape" d="M15,45H12a1,1,0,0,0,0,2h3a1,1,0,0,0,0-2Z"/>
          <path id="Shape-11" data-name="Shape" d="M21,34V28a3,3,0,0,0-3-3H15V23a1,1,0,0,1,1-1H29v3H26a3,3,0,0,0-3,3v6a3,3,0,0,0,3,3h8a3,3,0,0,0,3-3V28a3,3,0,0,0-3-3H31V22H44a1,1,0,0,1,1,1v2H42a3,3,0,0,0-3,3v6a3,3,0,0,0,3,3h8a3,3,0,0,0,3-3V28a3,3,0,0,0-3-3H47V23a3,3,0,0,0-3-3H31V18h7a3,3,0,0,0,3-3V9a3,3,0,0,0-3-3H22a3,3,0,0,0-3,3v6a3,3,0,0,0,3,3h7v2H16a3,3,0,0,0-3,3v2H10a3,3,0,0,0-3,3v6a3,3,0,0,0,3,3h8A3,3,0,0,0,21,34Zm30-6v6a1,1,0,0,1-1,1H42a1,1,0,0,1-1-1V28a1,1,0,0,1,1-1h8A1,1,0,0,1,51,28ZM35,28v6a1,1,0,0,1-1,1H26a1,1,0,0,1-1-1V28a1,1,0,0,1,1-1h8A1,1,0,0,1,35,28ZM21,15V9a1,1,0,0,1,1-1H38a1,1,0,0,1,1,1v6a1,1,0,0,1-1,1H22A1,1,0,0,1,21,15ZM19,34a1,1,0,0,1-1,1H10a1,1,0,0,1-1-1V28a1,1,0,0,1,1-1h8a1,1,0,0,1,1,1Z"/>
        </g>
      </g>
    </g>
  </g>
</svg>
