<svg xmlns="http://www.w3.org/2000/svg" xmlns:xlink="http://www.w3.org/1999/xlink" width="108" height="108" viewBox="0 0 108 108">
  <defs>
    <filter id="Path_904820" x="0" y="0" width="108" height="108" filterUnits="userSpaceOnUse">
      <feOffset dy="3" input="SourceAlpha"/>
      <feGaussianBlur stdDeviation="3" result="blur"/>
      <feFlood flood-opacity="0.161"/>
      <feComposite operator="in" in2="blur"/>
      <feComposite in="SourceGraphic"/>
    </filter>
  </defs>
  <g id="Group_1202674" data-name="Group 1202674" transform="translate(-619.999 -325)">
    <g id="Group_1202643" data-name="Group 1202643" transform="translate(628.999 331)">
      <g id="Group_1174741" data-name="Group 1174741" transform="translate(0 0)">
        <g id="Group_1173585" data-name="Group 1173585">
          <g id="Group_1173428" data-name="Group 1173428">
            <g id="Group_1171958" data-name="Group 1171958">
              <g id="Group_1167341" data-name="Group 1167341">
                <g id="Group_1166792" data-name="Group 1166792">
                  <g transform="matrix(1, 0, 0, 1, -9, -6)" filter="url(#Path_904820)">
                    <g id="Path_904820-2" data-name="Path 904820" transform="translate(9 6)" fill="#fef9e5">
                      <path d="M 44.99999618530273 88.50001525878906 C 39.12687301635742 88.50001525878906 33.43022155761719 87.35009002685547 28.06829643249512 85.08217620849609 C 22.88852119445801 82.89132690429688 18.23629570007324 79.75460052490234 14.24084663391113 75.75914764404297 C 10.24540901184082 71.76370239257812 7.108683586120605 67.11147308349609 4.917821407318115 61.93171310424805 C 2.649921178817749 56.56977462768555 1.499996185302734 50.87313461303711 1.499996185302734 45.0000114440918 C 1.499996185302734 39.12688827514648 2.649921178817749 33.43023681640625 4.917821407318115 28.06831169128418 C 7.108683586120605 22.88853645324707 10.24540901184082 18.2363109588623 14.24084663391113 14.2408618927002 C 18.23629570007324 10.24542427062988 22.88852119445801 7.108698844909668 28.06829643249512 4.917836666107178 C 33.43022155761719 2.649936437606812 39.12687301635742 1.500011444091797 44.99999618530273 1.500011444091797 C 50.87311935424805 1.500011444091797 56.56977081298828 2.649936437606812 61.93169784545898 4.917836666107178 C 67.11147308349609 7.108698844909668 71.76369476318359 10.24542427062988 75.75914764404297 14.2408618927002 C 79.75458526611328 18.2363109588623 82.89131164550781 22.88853645324707 85.08216857910156 28.06831169128418 C 87.35007476806641 33.43023681640625 88.5 39.12688827514648 88.5 45.0000114440918 C 88.5 50.87313461303711 87.35007476806641 56.56977462768555 85.08216857910156 61.93171310424805 C 82.89131164550781 67.11147308349609 79.75458526611328 71.76370239257812 75.75914764404297 75.75914764404297 C 71.76369476318359 79.75460052490234 67.11147308349609 82.89132690429688 61.93169784545898 85.08217620849609 C 56.56977081298828 87.35009002685547 50.87311935424805 88.50001525878906 44.99999618530273 88.50001525878906 Z" stroke="none"/>
                      <path d="M 44.99999618530273 3.000007629394531 C 39.32870864868164 3.000007629394531 33.82865142822266 4.110069274902344 28.65262603759766 6.299354553222656 C 23.65165710449219 8.414581298828125 19.15968322753906 11.44335174560547 15.301513671875 15.30152893066406 C 11.44333648681641 19.15969848632812 8.414566040039062 23.65167236328125 6.299339294433594 28.65264129638672 C 4.110054016113281 33.82866668701172 2.999992370605469 39.3287239074707 2.999992370605469 45.0000114440918 C 2.999992370605469 50.67129898071289 4.110054016113281 56.17134094238281 6.299339294433594 61.34738159179688 C 8.414566040039062 66.34835815429688 11.44333648681641 70.84030914306641 15.301513671875 74.69849395751953 C 19.15968322753906 78.55667114257812 23.65165710449219 81.58544158935547 28.65262603759766 83.70066833496094 C 33.82865142822266 85.88995361328125 39.32870864868164 87.00001525878906 44.99999618530273 87.00001525878906 C 50.67128372192383 87.00001525878906 56.17134094238281 85.88995361328125 61.34736633300781 83.70066833496094 C 66.34834289550781 81.58544158935547 70.84030914306641 78.55667114257812 74.69847869873047 74.69849395751953 C 78.55665588378906 70.84030914306641 81.58542633056641 66.34835815429688 83.70065307617188 61.34738159179688 C 85.88993835449219 56.17134094238281 87 50.67129898071289 87 45.0000114440918 C 87 39.3287239074707 85.88993835449219 33.82866668701172 83.70065307617188 28.65264129638672 C 81.58542633056641 23.65167236328125 78.55665588378906 19.15969848632812 74.69847869873047 15.30152893066406 C 70.84030914306641 11.44335174560547 66.34834289550781 8.414581298828125 61.34736633300781 6.299354553222656 C 56.17134094238281 4.110069274902344 50.67128372192383 3.000007629394531 44.99999618530273 3.000007629394531 M 44.99999618530273 7.62939453125e-06 C 69.85281372070312 7.62939453125e-06 90 20.14719390869141 90 45.0000114440918 C 90 69.85281372070312 69.85281372070312 90.00001525878906 44.99999618530273 90.00001525878906 C 20.14717864990234 90.00001525878906 -7.62939453125e-06 69.85281372070312 -7.62939453125e-06 45.0000114440918 C -7.62939453125e-06 20.14719390869141 20.14717864990234 7.62939453125e-06 44.99999618530273 7.62939453125e-06 Z" stroke="none" fill="#866d08"/>
                    </g>
                  </g>
                </g>
              </g>
            </g>
          </g>
        </g>
      </g>
      <g id="edit-code_3097885" transform="translate(14.206 20.355)">
        <path id="Path_1044013" data-name="Path 1044013" d="M70.617,92.476h0l-3.157,1.352L62.718,95.86l2.029-4.739L66.1,87.964l3.881-3.884H33.67v22.748H78.586V84.506Z" transform="translate(-25.859 -71.136)" fill="#f2e1d6"/>
        <path id="Path_1044014" data-name="Path 1044014" d="M63.425,81.76v2.512a3.656,3.656,0,0,1-3.655,3.655H7.755A3.656,3.656,0,0,1,4.1,84.272V81.76a1.218,1.218,0,0,1,1.218-1.218H7.7V47a2.436,2.436,0,0,1,2.436-2.436H57.246l-3.6,3.606H11.3V76.936H56.221V54.615l3.606-3.606V80.542h2.38A1.218,1.218,0,0,1,63.425,81.76Z" transform="translate(-3.493 -41.244)" fill="#afafaf"/>
        <path id="Path_1044015" data-name="Path 1044015" d="M203.564,44.556l-3.6,3.606h-2.414l3.6-3.606Z" transform="translate(-149.809 -41.241)" fill="#7c7b7a"/>
        <path id="Path_1044016" data-name="Path 1044016" d="M221.636,71.03v2.412l-3.606,3.606V74.636Z" transform="translate(-165.303 -61.265)" fill="#7c7b7a"/>
        <path id="Path_1044017" data-name="Path 1044017" d="M162.163,84.506v2.412l-6.793,6.793L145.18,97.948a.731.731,0,0,1-.953-.962l4.485-10.466,2.439-2.439h2.41l-3.881,3.884-1.355,3.157L146.3,95.86l4.736-2.032,3.157-1.352h0Z" transform="translate(-109.436 -71.136)" fill="#d6c0b4"/>
        <path id="Path_1044018" data-name="Path 1044018" d="M76.009,59.36l-6.025,6.023H33.67V59.36Z" transform="translate(-25.859 -52.438)" fill="#f0c020"/>
        <path id="Path_1044019" data-name="Path 1044019" d="M181.271,59.356l-6.025,6.023h-2.41l6.02-6.023Z" transform="translate(-131.119 -52.435)" fill="#f0ab20"/>
        <path id="Path_1044020" data-name="Path 1044020" d="M95.252,192.251V194.6a1.218,1.218,0,0,0,1.218,1.218h12.476a1.218,1.218,0,0,0,1.218-1.218v-2.348Z" transform="translate(-72.437 -152.952)" fill="#7a7380"/>
        <path id="Path_1044021" data-name="Path 1044021" d="M167.094,104.532l-3.157,1.352-2.707-2.707,1.355-3.158Z" transform="translate(-122.341 -83.192)" fill="#f0c020"/>
        <path id="Path_1044022" data-name="Path 1044022" d="M157.636,115.687l-4.736,2.032,2.029-4.739Z" transform="translate(-116.04 -92.995)" fill="#7a7380"/>
        <path id="Path_1044023" data-name="Path 1044023" d="M180.453,43.93l-.154.153-3.6,3.606-6.025,6.023L166.79,57.6l4.51,4.512h0l7.969-7.969,3.606-3.606,2.086-2.086Z" transform="translate(-126.546 -40.767)" fill="#72c1e8"/>
        <path id="Path_1044024" data-name="Path 1044024" d="M229.36,38.541l-1.976,1.976h0L222.87,36l1.973-1.973a2,2,0,0,1,2.821,0l1.7,1.693A2,2,0,0,1,229.36,38.541Z" transform="translate(-168.963 -32.837)" fill="#fc5d3d"/>
        <path id="Path_1044025" data-name="Path 1044025" d="M168.285,129.249h-7.362a.609.609,0,0,1,0-1.218h6.753V117a.609.609,0,1,1,1.218,0V128.64A.609.609,0,0,1,168.285,129.249Zm-9.8,0h-1.856a.609.609,0,1,1,0-1.218h1.856a.609.609,0,1,1,0,1.218Z" transform="translate(-118.402 -95.573)" fill="#fff"/>
        <path id="Path_1044026" data-name="Path 1044026" d="M179.489,203.48h-12.98a.609.609,0,0,1,0-1.218h12.98a.609.609,0,0,0,.609-.609V200.36a.609.609,0,1,1,1.218,0v1.292A1.829,1.829,0,0,1,179.489,203.48Zm-15.416,0h-1.218a.609.609,0,1,1,0-1.218h1.218a.609.609,0,1,1,0,1.218Z" transform="translate(-123.109 -158.625)" fill="#efefef"/>
        <path id="Path_1044027" data-name="Path 1044027" d="M52.165,69.214h-4.5a.609.609,0,0,0,0,1.218h4.5a.609.609,0,0,0,0-1.218Z" transform="translate(-35.984 -59.891)"/>
        <path id="Path_1044028" data-name="Path 1044028" d="M89.995,69.214H85.5a.609.609,0,0,0,0,1.218h4.5a.609.609,0,0,0,0-1.218Z" transform="translate(-64.597 -59.891)"/>
        <path id="Path_1044029" data-name="Path 1044029" d="M127.828,69.214h-4.5a.609.609,0,0,0,0,1.218h4.5a.609.609,0,1,0,0-1.218Z" transform="translate(-93.21 -59.891)"/>
        <circle id="Ellipse_12566" data-name="Ellipse 12566" cx="0.609" cy="0.609" r="0.609" transform="translate(11.084 38.688)"/>
        <path id="Path_1044030" data-name="Path 1044030" d="M72.984,97.782h12.23a.609.609,0,1,0,0-1.218H72.984a.609.609,0,0,0,0,1.218Z" transform="translate(-55.134 -80.578)"/>
        <path id="Path_1044031" data-name="Path 1044031" d="M43.825,97.782h.253a.609.609,0,1,0,0-1.218h-.253a.609.609,0,1,0,0,1.218Z" transform="translate(-33.079 -80.578)"/>
        <path id="Path_1044032" data-name="Path 1044032" d="M81.566,113.023a.611.611,0,0,0,.609.609H94.4a.609.609,0,0,0,0-1.218H82.175A.609.609,0,0,0,81.566,113.023Z" transform="translate(-62.086 -92.566)"/>
        <path id="Path_1044033" data-name="Path 1044033" d="M44.078,112.414h-.253a.609.609,0,1,0,0,1.218h.253a.609.609,0,0,0,0-1.218Z" transform="translate(-33.079 -92.566)"/>
        <path id="Path_1044034" data-name="Path 1044034" d="M102.881,128.254H91.365a.609.609,0,1,0,0,1.218h11.516a.609.609,0,0,0,0-1.218Z" transform="translate(-69.037 -104.547)"/>
        <path id="Path_1044035" data-name="Path 1044035" d="M44.078,128.254h-.253a.609.609,0,1,0,0,1.218h.253a.609.609,0,1,0,0-1.218Z" transform="translate(-33.079 -104.547)"/>
        <path id="Path_1044036" data-name="Path 1044036" d="M85.822,144.709a.609.609,0,0,0-.607-.609H72.985a.609.609,0,1,0,0,1.218h12.23A.609.609,0,0,0,85.822,144.709Z" transform="translate(-55.135 -116.533)"/>
        <path id="Path_1044037" data-name="Path 1044037" d="M44.078,144.1h-.253a.609.609,0,1,0,0,1.218h.253a.609.609,0,1,0,0-1.218Z" transform="translate(-33.079 -116.533)"/>
        <path id="Path_1044038" data-name="Path 1044038" d="M94.4,159.954H82.175a.609.609,0,1,0,0,1.218H94.4a.609.609,0,1,0,0-1.218Z" transform="translate(-62.086 -128.524)"/>
        <path id="Path_1044039" data-name="Path 1044039" d="M44.078,159.954h-.253a.609.609,0,1,0,0,1.218h.253a.609.609,0,1,0,0-1.218Z" transform="translate(-33.079 -128.524)"/>
        <circle id="Ellipse_12567" data-name="Ellipse 12567" cx="0.609" cy="0.609" r="0.609" transform="translate(52.12 22.506)"/>
        <path id="Path_1044040" data-name="Path 1044040" d="M62.437,37.081a2.612,2.612,0,0,0,0-3.681l-1.7-1.693a2.617,2.617,0,0,0-3.682,0l-1.946,1.949H8.253A3.049,3.049,0,0,0,5.207,36.7V69.637H3.436a1.831,1.831,0,0,0-1.827,1.827v2.512A4.27,4.27,0,0,0,5.873,78.24H57.888a4.276,4.276,0,0,0,4.264-4.264V71.465a1.829,1.829,0,0,0-1.827-1.827H58.554V40.964ZM46.367,51.428l-1.4-1.4,2.9-2.9a.609.609,0,0,0,0-.86.622.622,0,0,0-.862,0l-2.9,2.9-1.4-1.4,12.8-12.8,1.4,1.4L50.452,42.83a.609.609,0,1,0,.863.86l6.46-6.46,1.395,1.4ZM40.706,52l1.433,1.433-2.507,1.076Zm2.64.917L41.222,50.8l.838-1.953,3.238,3.24ZM10.032,43.283v-4.8H50.289l-4.8,4.8Zm0,22.749V44.5h4.9v21.53ZM57.918,32.57a1.4,1.4,0,0,1,1.962,0l1.7,1.693a1.391,1.391,0,0,1,0,1.96L60.03,37.765l-3.651-3.655Zm-.582,37.067h-41.6a.609.609,0,0,0,0,1.218h8.077v1.74a1.831,1.831,0,0,0,1.827,1.827H38.119a1.829,1.829,0,0,0,1.825-1.827v-1.74h20.38a.611.611,0,0,1,.609.609v2.512a3.055,3.055,0,0,1-3.045,3.045H5.873a3.073,3.073,0,0,1-3.045-3.045V71.464a.611.611,0,0,1,.609-.609h7.429a.609.609,0,0,0,0-1.218H6.426V36.7a1.829,1.829,0,0,1,1.827-1.827H53.894L51.507,37.26H9.423a.609.609,0,0,0-.609.609V66.64a.614.614,0,0,0,.609.609H54.339a.61.61,0,0,0,.609-.609V56.5a.609.609,0,1,0-1.218,0v9.531H16.149V44.5H44.267l-2.843,2.844a.74.74,0,0,0-.129.19c-.715,1.667-2.406,5.614-3.384,7.9a.609.609,0,0,0,.56.849c.213,0-.245.157,8.115-3.425a.609.609,0,0,0,.214-.137l6.928-6.929v5.838a.609.609,0,1,0,1.218,0V44.571l2.388-2.388Zm-32.3,1.218H38.728v1.74a.613.613,0,0,1-.609.609H25.643a.609.609,0,0,1-.609-.609Z" transform="translate(-1.609 -30.949)"/>
        <path id="Path_1044041" data-name="Path 1044041" d="M194.464,86.245a.609.609,0,1,0,.862,0,.622.622,0,0,0-.862,0Z" transform="translate(-147.343 -72.642)"/>
      </g>
    </g>
  </g>
</svg>
