<svg xmlns="http://www.w3.org/2000/svg" xmlns:xlink="http://www.w3.org/1999/xlink" width="113" height="113" viewBox="0 0 113 113">
  <defs>
    <filter id="Path_982547" x="0" y="0" width="113" height="113" filterUnits="userSpaceOnUse">
      <feOffset dy="3" input="SourceAlpha"/>
      <feGaussianBlur stdDeviation="3" result="blur"/>
      <feFlood flood-opacity="0.161"/>
      <feComposite operator="in" in2="blur"/>
      <feComposite in="SourceGraphic"/>
    </filter>
  </defs>
  <g id="Group_1202686" data-name="Group 1202686" transform="translate(-271.088 -6431.772)">
    <g id="Group_1202629" data-name="Group 1202629">
      <g id="Group_1202185" data-name="Group 1202185" transform="translate(0.088 5561.358)">
        <g id="Group_1174813" data-name="Group 1174813" transform="translate(280 876.414)">
          <g id="Group_1201680" data-name="Group 1201680">
            <g id="Group_1201330" data-name="Group 1201330">
              <g id="Group_1172010" data-name="Group 1172010">
                <g id="Group_1171046" data-name="Group 1171046">
                  <g id="Group_1148525" data-name="Group 1148525">
                    <g transform="matrix(1, 0, 0, 1, -9, -6)" filter="url(#Path_982547)">
                      <g id="Path_982547-2" data-name="Path 982547" transform="translate(9 6)" fill="#e5fdfa">
                        <path d="M 47.5 93.5 C 41.28937149047852 93.5 35.26533508300781 92.28397369384766 29.59518623352051 89.88570404052734 C 24.11771965026855 87.56893157958984 19.19813346862793 84.25196075439453 14.97309303283691 80.02691650390625 C 10.74804019927979 75.80186462402344 7.431066513061523 70.88229370117188 5.114293098449707 65.40481567382812 C 2.716026782989502 59.73468017578125 1.5 53.71062850952148 1.5 47.5 C 1.5 41.28937149047852 2.716026782989502 35.26533508300781 5.114293098449707 29.59518623352051 C 7.431066513061523 24.11771965026855 10.74804019927979 19.19813346862793 14.97309303283691 14.97309303283691 C 19.19813346862793 10.74804019927979 24.11771965026855 7.431066513061523 29.59518623352051 5.114293098449707 C 35.26533508300781 2.716026782989502 41.28937149047852 1.5 47.5 1.5 C 53.71062850952148 1.5 59.73468017578125 2.716026782989502 65.40481567382812 5.114293098449707 C 70.88229370117188 7.431066513061523 75.80186462402344 10.74804019927979 80.02691650390625 14.97309303283691 C 84.25196075439453 19.19813346862793 87.56893157958984 24.11771965026855 89.88570404052734 29.59518623352051 C 92.28397369384766 35.26533508300781 93.5 41.28937149047852 93.5 47.5 C 93.5 53.71062850952148 92.28397369384766 59.73468017578125 89.88570404052734 65.40481567382812 C 87.56893157958984 70.88229370117188 84.25196075439453 75.80186462402344 80.02691650390625 80.02691650390625 C 75.80186462402344 84.25196075439453 70.88229370117188 87.56893157958984 65.40481567382812 89.88570404052734 C 59.73468017578125 92.28397369384766 53.71062850952148 93.5 47.5 93.5 Z" stroke="none"/>
                        <path d="M 47.5 3 C 41.49121475219727 3 35.66376876831055 4.176155090332031 30.17950439453125 6.495796203613281 C 24.88084411621094 8.736953735351562 20.12152099609375 11.94598388671875 16.03375244140625 16.03375244140625 C 11.94598388671875 20.12152099609375 8.736953735351562 24.88084411621094 6.495796203613281 30.17950439453125 C 4.176155090332031 35.66376876831055 3 41.49121475219727 3 47.5 C 3 53.50878524780273 4.176155090332031 59.33623123168945 6.495796203613281 64.82049560546875 C 8.736953735351562 70.11915588378906 11.94598388671875 74.87847900390625 16.03375244140625 78.96624755859375 C 20.12152099609375 83.05401611328125 24.88084411621094 86.26304626464844 30.17950439453125 88.50419616699219 C 35.66376876831055 90.82384490966797 41.49121475219727 92 47.5 92 C 53.50878524780273 92 59.33623123168945 90.82384490966797 64.82049560546875 88.50419616699219 C 70.11915588378906 86.26304626464844 74.87847900390625 83.05401611328125 78.96624755859375 78.96624755859375 C 83.05401611328125 74.87847900390625 86.26304626464844 70.11915588378906 88.50419616699219 64.82049560546875 C 90.82384490966797 59.33623123168945 92 53.50878524780273 92 47.5 C 92 41.49121475219727 90.82384490966797 35.66376876831055 88.50419616699219 30.17950439453125 C 86.26304626464844 24.88084411621094 83.05401611328125 20.12152099609375 78.96624755859375 16.03375244140625 C 74.87847900390625 11.94598388671875 70.11915588378906 8.736953735351562 64.82049560546875 6.495796203613281 C 59.33623123168945 4.176155090332031 53.50878524780273 3 47.5 3 M 47.5 0 C 73.7335205078125 0 95 21.2664794921875 95 47.5 C 95 73.7335205078125 73.7335205078125 95 47.5 95 C 21.2664794921875 95 0 73.7335205078125 0 47.5 C 0 21.2664794921875 21.2664794921875 0 47.5 0 Z" stroke="none" fill="#098576"/>
                      </g>
                    </g>
                  </g>
                </g>
              </g>
            </g>
          </g>
        </g>
      </g>
      <g id="result_3534122" transform="translate(272.843 6459.641)">
        <g id="Group_1202627" data-name="Group 1202627" transform="translate(28.703 0.868)">
          <path id="Path_1043976" data-name="Path 1043976" d="M53.5,30.056h46.878V72.543H53.5Z" transform="translate(-51.398 -27.445)" fill="#fee2ca"/>
          <path id="Path_1043977" data-name="Path 1043977" d="M425.125,30.056h3.863V72.543h-3.863Z" transform="translate(-380.007 -27.445)" fill="#fed5b0"/>
          <path id="Path_1043978" data-name="Path 1043978" d="M86.419,378.7v-3.061a1.08,1.08,0,0,0-1.08-1.08H36.416a1.08,1.08,0,0,0-1.08,1.08V378.7a1.08,1.08,0,0,0,1.08,1.08H85.339A1.08,1.08,0,0,0,86.419,378.7Z" transform="translate(-35.336 -332.075)" fill="#0268b4"/>
          <path id="Path_1043979" data-name="Path 1043979" d="M86.419,11.641V8.58a1.08,1.08,0,0,0-1.08-1.08H36.416a1.08,1.08,0,0,0-1.08,1.08v3.061a1.08,1.08,0,0,0,1.08,1.08H85.339A1.08,1.08,0,0,0,86.419,11.641Z" transform="translate(-35.336 -7.5)" fill="#0268b4"/>
          <circle id="Ellipse_12564" data-name="Ellipse 12564" cx="9.445" cy="9.445" r="9.445" transform="translate(16.44 38.638)" fill="#fea95c"/>
          <path id="Path_1043980" data-name="Path 1043980" d="M104.245,107.851H87.318a.675.675,0,0,1-.675-.675v-13.5A.675.675,0,0,1,87.318,93h16.927a.675.675,0,0,1,.675.675v13.5A.675.675,0,0,1,104.245,107.851Z" transform="translate(-80.704 -83.104)" fill="#8ac9fe"/>
          <path id="Path_1043981" data-name="Path 1043981" d="M292.288,90.148h-1.423a6.781,6.781,0,0,0-.613-1.479l1.007-1.007a.659.659,0,0,0,0-.932l-1.689-1.689a.659.659,0,0,0-.932,0l-1.007,1.007a6.78,6.78,0,0,0-1.479-.613V84.012a.659.659,0,0,0-.659-.659H283.1a.659.659,0,0,0-.659.659v1.423a6.78,6.78,0,0,0-1.479.613l-1.007-1.007a.659.659,0,0,0-.932,0l-1.689,1.689a.659.659,0,0,0,0,.932l1.007,1.007a6.779,6.779,0,0,0-.613,1.479h-1.423a.659.659,0,0,0-.659.659V93.2a.659.659,0,0,0,.659.659h1.423a6.778,6.778,0,0,0,.613,1.479l-1.007,1.007a.659.659,0,0,0,0,.932l1.689,1.689a.659.659,0,0,0,.932,0l1.007-1.007a6.807,6.807,0,0,0,.878.413q.294.114.6.2v1.423a.659.659,0,0,0,.659.659h2.389a.659.659,0,0,0,.659-.659V98.569a6.78,6.78,0,0,0,1.479-.613l1.007,1.007a.659.659,0,0,0,.932,0l1.689-1.689a.659.659,0,0,0,0-.932l-1.007-1.007a6.781,6.781,0,0,0,.613-1.479h1.423a.659.659,0,0,0,.659-.659V90.808A.659.659,0,0,0,292.288,90.148Z" transform="translate(-247.833 -74.573)" fill="#537983"/>
          <circle id="Ellipse_12565" data-name="Ellipse 12565" cx="2.867" cy="2.867" r="2.867" transform="translate(33.598 14.562)" fill="#c8effe"/>
          <path id="Path_1043982" data-name="Path 1043982" d="M335.875,276.357H325.6a.675.675,0,0,1-.675-.675V268.53a.675.675,0,0,1,.675-.675h10.275a.675.675,0,0,1,.675.675v7.152A.675.675,0,0,1,335.875,276.357Z" transform="translate(-291.405 -237.719)" fill="#8ac9fe"/>
          <path id="Path_1043983" data-name="Path 1043983" d="M437.252,374.561h-3.937a1.08,1.08,0,0,1,1.08,1.08V378.7a1.08,1.08,0,0,1-1.08,1.08h3.937a1.08,1.08,0,0,0,1.08-1.08v-3.061A1.08,1.08,0,0,0,437.252,374.561Z" transform="translate(-387.249 -332.074)" fill="#015a9a"/>
          <path id="Path_1043984" data-name="Path 1043984" d="M437.252,7.5h-3.937a1.08,1.08,0,0,1,1.08,1.08v3.061a1.08,1.08,0,0,1-1.08,1.08h3.937a1.08,1.08,0,0,0,1.08-1.08V8.58A1.08,1.08,0,0,0,437.252,7.5Z" transform="translate(-387.249 -7.5)" fill="#015a9a"/>
          <path id="Path_1043985" data-name="Path 1043985" d="M249.363,341.308a9.388,9.388,0,0,0-1.257.086,9.443,9.443,0,0,1,0,18.718,9.444,9.444,0,1,0,1.257-18.8Z" transform="translate(-223.478 -302.67)" fill="#fe9738"/>
        </g>
        <g id="Group_1202628" data-name="Group 1202628" transform="translate(27.835)">
          <path id="Path_1043986" data-name="Path 1043986" d="M210.669,378.75l-5.658,5.658-1.439-2.1a1.62,1.62,0,0,0-2.675,1.83l2.542,3.715a1.621,1.621,0,0,0,2.483.231l7.039-7.039a1.621,1.621,0,0,0-2.292-2.292Z" transform="translate(-180.614 -334.491)"/>
          <path id="Path_1043987" data-name="Path 1043987" d="M78.706,6.958a1.951,1.951,0,0,0,1.948-1.949V1.948A1.951,1.951,0,0,0,78.706,0H29.783a1.951,1.951,0,0,0-1.948,1.948V5.009a1.951,1.951,0,0,0,1.948,1.949h.154v9.781a.868.868,0,1,0,1.736,0V6.958H76.816V42.487H62.623a10.31,10.31,0,0,0-16.068,0H31.674V20.79a.868.868,0,1,0-1.736,0v21.7h-.154a1.951,1.951,0,0,0-1.948,1.949V47.5a1.951,1.951,0,0,0,1.948,1.948h14.5a10.314,10.314,0,0,0,15.834,8.21.868.868,0,1,0-.933-1.464,8.577,8.577,0,0,1-12.5-10.579c3.538-8.339,16.476-6.192,16.476,3.339a8.543,8.543,0,0,1-1.381,4.67.868.868,0,1,0,1.455.947,10.266,10.266,0,0,0,1.649-5.122H78.706A1.951,1.951,0,0,0,80.655,47.5V44.435a1.951,1.951,0,0,0-1.948-1.949h-.154V6.958ZM44.351,47.708H29.784a.212.212,0,0,1-.212-.212V44.435a.212.212,0,0,1,.212-.212H45.422a10.306,10.306,0,0,0-1.071,3.485Zm34.356-3.485a.212.212,0,0,1,.212.212V47.5a.212.212,0,0,1-.212.212H64.826a10.3,10.3,0,0,0-1.071-3.485Zm-48.923-39a.212.212,0,0,1-.212-.212V1.948a.212.212,0,0,1,.212-.212H78.706a.212.212,0,0,1,.212.212V5.009a.212.212,0,0,1-.212.212Z" transform="translate(-27.835 0)"/>
          <path id="Path_1043988" data-name="Path 1043988" d="M80.686,102.087H97.613a1.545,1.545,0,0,0,1.543-1.543v-13.5A1.545,1.545,0,0,0,97.613,85.5H80.686a1.545,1.545,0,0,0-1.543,1.543v13.5A1.545,1.545,0,0,0,80.686,102.087Zm.193-14.85H97.42v13.113H80.879Z" transform="translate(-73.204 -75.604)"/>
          <path id="Path_1043989" data-name="Path 1043989" d="M269.677,82.649a1.529,1.529,0,0,0-1.527,1.527v2.389a1.529,1.529,0,0,0,1.527,1.527h.8q.084.223.183.441l-.563.563a1.529,1.529,0,0,0,0,2.16l1.689,1.689a1.529,1.529,0,0,0,2.16,0l.563-.563q.2.089.395.166l.046.017v.8a1.529,1.529,0,0,0,1.527,1.527h2.389a1.529,1.529,0,0,0,1.527-1.527v-.8q.223-.084.441-.183l.563.563a1.529,1.529,0,0,0,2.16,0l1.689-1.689a1.526,1.526,0,0,0,0-2.16l-.563-.563q.1-.218.183-.441h.8a1.529,1.529,0,0,0,1.527-1.527V84.176a1.529,1.529,0,0,0-1.527-1.527h-.8q-.084-.223-.183-.441l.563-.563a1.526,1.526,0,0,0,0-2.16L283.552,77.8a1.526,1.526,0,0,0-2.16,0l-.563.563q-.218-.1-.441-.183v-.8a1.529,1.529,0,0,0-1.527-1.527h-2.389a1.529,1.529,0,0,0-1.527,1.527v.8q-.223.084-.441.183l-.563-.563a1.526,1.526,0,0,0-2.16,0l-1.689,1.689a1.527,1.527,0,0,0,0,2.159l.563.563q-.1.217-.183.441Zm1.423,1.736a.868.868,0,0,0,.836-.633,5.924,5.924,0,0,1,.535-1.289.868.868,0,0,0-.143-1.039l-.859-.859,1.393-1.393.859.859a.868.868,0,0,0,1.039.143,5.916,5.916,0,0,1,1.289-.535.868.868,0,0,0,.633-.836V77.589h1.97V78.8a.868.868,0,0,0,.633.836,5.924,5.924,0,0,1,1.289.535.868.868,0,0,0,1.039-.143l.859-.859,1.393,1.393-.859.859a.868.868,0,0,0-.143,1.039,5.911,5.911,0,0,1,.535,1.289.868.868,0,0,0,.836.633h1.214v1.97h-1.214a.868.868,0,0,0-.836.633,5.921,5.921,0,0,1-.535,1.29.868.868,0,0,0,.143,1.039l.859.859-1.393,1.393-.859-.859a.868.868,0,0,0-1.039-.143,5.916,5.916,0,0,1-1.289.535.868.868,0,0,0-.633.836v1.214h-1.97V91.937a.868.868,0,0,0-.632-.836,5.923,5.923,0,0,1-1.29-.535.868.868,0,0,0-1.039.143l-.859.859-1.393-1.393.859-.859a.868.868,0,0,0,.143-1.039,5.918,5.918,0,0,1-.535-1.29.868.868,0,0,0-.836-.633h-1.214v-1.97Z" transform="translate(-240.334 -67.073)"/>
          <path id="Path_1043990" data-name="Path 1043990" d="M321.836,133.274a3.735,3.735,0,1,0-3.735-3.735A3.739,3.739,0,0,0,321.836,133.274Zm0-5.734a2,2,0,1,1-2,2A2,2,0,0,1,321.836,127.539Z" transform="translate(-284.503 -111.241)"/>
          <path id="Path_1043991" data-name="Path 1043991" d="M329.243,260.354H318.968a1.545,1.545,0,0,0-1.543,1.543v7.152a1.545,1.545,0,0,0,1.543,1.543h10.275a1.545,1.545,0,0,0,1.543-1.543V261.9A1.545,1.545,0,0,0,329.243,260.354Zm-.193,8.5h-9.889V262.09h9.889Z" transform="translate(-283.905 -230.218)"/>
          <path id="Path_1043992" data-name="Path 1043992" d="M80.011,262.09h21.877a.868.868,0,1,0,0-1.736H80.011a.868.868,0,1,0,0,1.736Z" transform="translate(-73.204 -230.218)"/>
          <path id="Path_1043993" data-name="Path 1043993" d="M80.011,301.775h21.877a.868.868,0,1,0,0-1.736H80.011a.868.868,0,1,0,0,1.736Z" transform="translate(-73.204 -265.31)"/>
        </g>
      </g>
    </g>
  </g>
</svg>
