<svg xmlns="http://www.w3.org/2000/svg" xmlns:xlink="http://www.w3.org/1999/xlink" width="113" height="113" viewBox="0 0 113 113">
  <defs>
    <filter id="Path_982547" x="0" y="0" width="113" height="113" filterUnits="userSpaceOnUse">
      <feOffset dy="3" input="SourceAlpha"/>
      <feGaussianBlur stdDeviation="3" result="blur"/>
      <feFlood flood-opacity="0.161"/>
      <feComposite operator="in" in2="blur"/>
      <feComposite in="SourceGraphic"/>
    </filter>
  </defs>
  <g id="Group_1202689" data-name="Group 1202689" transform="translate(-1217.088 -6431.772)">
    <g id="Group_1202638" data-name="Group 1202638">
      <g id="Group_1202606" data-name="Group 1202606" transform="translate(946.088 5561.358)">
        <g id="Group_1174813" data-name="Group 1174813" transform="translate(280 876.414)">
          <g id="Group_1201680" data-name="Group 1201680">
            <g id="Group_1201330" data-name="Group 1201330">
              <g id="Group_1172010" data-name="Group 1172010">
                <g id="Group_1171046" data-name="Group 1171046">
                  <g id="Group_1148525" data-name="Group 1148525">
                    <g transform="matrix(1, 0, 0, 1, -9, -6)" filter="url(#Path_982547)">
                      <g id="Path_982547-2" data-name="Path 982547" transform="translate(9 6)" fill="#e5fdfa">
                        <path d="M 47.5 93.5 C 41.28937149047852 93.5 35.26533508300781 92.28397369384766 29.59518623352051 89.88570404052734 C 24.11771965026855 87.56893157958984 19.19813346862793 84.25196075439453 14.97309303283691 80.02691650390625 C 10.74804019927979 75.80186462402344 7.431066513061523 70.88229370117188 5.114293098449707 65.40481567382812 C 2.716026782989502 59.73468017578125 1.5 53.71062850952148 1.5 47.5 C 1.5 41.28937149047852 2.716026782989502 35.26533508300781 5.114293098449707 29.59518623352051 C 7.431066513061523 24.11771965026855 10.74804019927979 19.19813346862793 14.97309303283691 14.97309303283691 C 19.19813346862793 10.74804019927979 24.11771965026855 7.431066513061523 29.59518623352051 5.114293098449707 C 35.26533508300781 2.716026782989502 41.28937149047852 1.5 47.5 1.5 C 53.71062850952148 1.5 59.73468017578125 2.716026782989502 65.40481567382812 5.114293098449707 C 70.88229370117188 7.431066513061523 75.80186462402344 10.74804019927979 80.02691650390625 14.97309303283691 C 84.25196075439453 19.19813346862793 87.56893157958984 24.11771965026855 89.88570404052734 29.59518623352051 C 92.28397369384766 35.26533508300781 93.5 41.28937149047852 93.5 47.5 C 93.5 53.71062850952148 92.28397369384766 59.73468017578125 89.88570404052734 65.40481567382812 C 87.56893157958984 70.88229370117188 84.25196075439453 75.80186462402344 80.02691650390625 80.02691650390625 C 75.80186462402344 84.25196075439453 70.88229370117188 87.56893157958984 65.40481567382812 89.88570404052734 C 59.73468017578125 92.28397369384766 53.71062850952148 93.5 47.5 93.5 Z" stroke="none"/>
                        <path d="M 47.5 3 C 41.49121475219727 3 35.66376876831055 4.176155090332031 30.17950439453125 6.495796203613281 C 24.88084411621094 8.736953735351562 20.12152099609375 11.94598388671875 16.03375244140625 16.03375244140625 C 11.94598388671875 20.12152099609375 8.736953735351562 24.88084411621094 6.495796203613281 30.17950439453125 C 4.176155090332031 35.66376876831055 3 41.49121475219727 3 47.5 C 3 53.50878524780273 4.176155090332031 59.33623123168945 6.495796203613281 64.82049560546875 C 8.736953735351562 70.11915588378906 11.94598388671875 74.87847900390625 16.03375244140625 78.96624755859375 C 20.12152099609375 83.05401611328125 24.88084411621094 86.26304626464844 30.17950439453125 88.50419616699219 C 35.66376876831055 90.82384490966797 41.49121475219727 92 47.5 92 C 53.50878524780273 92 59.33623123168945 90.82384490966797 64.82049560546875 88.50419616699219 C 70.11915588378906 86.26304626464844 74.87847900390625 83.05401611328125 78.96624755859375 78.96624755859375 C 83.05401611328125 74.87847900390625 86.26304626464844 70.11915588378906 88.50419616699219 64.82049560546875 C 90.82384490966797 59.33623123168945 92 53.50878524780273 92 47.5 C 92 41.49121475219727 90.82384490966797 35.66376876831055 88.50419616699219 30.17950439453125 C 86.26304626464844 24.88084411621094 83.05401611328125 20.12152099609375 78.96624755859375 16.03375244140625 C 74.87847900390625 11.94598388671875 70.11915588378906 8.736953735351562 64.82049560546875 6.495796203613281 C 59.33623123168945 4.176155090332031 53.50878524780273 3 47.5 3 M 47.5 0 C 73.7335205078125 0 95 21.2664794921875 95 47.5 C 95 73.7335205078125 73.7335205078125 95 47.5 95 C 21.2664794921875 95 0 73.7335205078125 0 47.5 C 0 21.2664794921875 21.2664794921875 0 47.5 0 Z" stroke="none" fill="#098576"/>
                      </g>
                    </g>
                  </g>
                </g>
              </g>
            </g>
          </g>
        </g>
      </g>
      <g id="Page-1" transform="translate(1243.587 6457)">
        <g id="_013---UI-Timeframe" data-name="013---UI-Timeframe">
          <path id="Shape" d="M53,9V32A15.007,15.007,0,0,0,29.3,47H3a2.006,2.006,0,0,1-2-2V9Z" fill="#f5f5f5"/>
          <path id="Shape-2" data-name="Shape" d="M42.464,29.078C41.982,29.031,41.5,29,41,29A15.005,15.005,0,0,0,26,44a14.819,14.819,0,0,0,.3,3h3a14.819,14.819,0,0,1-.3-3A15.008,15.008,0,0,1,42.464,29.078Z" fill="#cfd8dc"/>
          <path id="Shape-3" data-name="Shape" d="M50,9V30.251A14.914,14.914,0,0,1,53,32V9Z" fill="#cfd8dc"/>
          <path id="Shape-4" data-name="Shape" d="M53,3V9H1V3A2.006,2.006,0,0,1,3,1H51A2.006,2.006,0,0,1,53,3Z" fill="#607d8b"/>
          <path id="Shape-5" data-name="Shape" d="M51,1H48a2.006,2.006,0,0,1,2,2V9h3V3A2.006,2.006,0,0,0,51,1Z" fill="#37474f"/>
          <rect id="Rectangle-path" width="22" height="18" rx="2" transform="translate(6 14)" fill="#e91e63"/>
          <path id="Shape-6" data-name="Shape" d="M26,14H23a2,2,0,0,1,2,2V30a2,2,0,0,1-2,2h3a2,2,0,0,0,2-2V16A2,2,0,0,0,26,14Z" fill="#ad1457"/>
          <path id="Shape-7" data-name="Shape" d="M59,44a15,15,0,0,1-29.7,3,14.819,14.819,0,0,1-.3-3,15,15,0,0,1,30,0Z" fill="#ffdc00"/>
          <circle id="Oval" cx="11" cy="11" r="11" transform="translate(33 33)" fill="#00bcd4"/>
          <path id="Shape-8" data-name="Shape" d="M44,33a10.918,10.918,0,0,0-1.5.115,10.986,10.986,0,0,1,0,21.77A10.994,10.994,0,1,0,44,33Z" fill="#00838f"/>
          <circle id="Oval-2" data-name="Oval" cx="1" cy="1" r="1" transform="translate(4 4)" fill="#f44335"/>
          <circle id="Oval-3" data-name="Oval" cx="1" cy="1" r="1" transform="translate(8 4)" fill="#ffdc00"/>
          <circle id="Oval-4" data-name="Oval" cx="1" cy="1" r="1" transform="translate(12 4)" fill="#60a917"/>
          <path id="Shape-9" data-name="Shape" d="M24.814,17.419a1,1,0,0,0-1.4-.233L17,21.771l-6.419-4.585a1,1,0,1,0-1.162,1.628L15.279,23l-5.86,4.186a1,1,0,1,0,1.162,1.628L17,24.229l6.419,4.585a1,1,0,1,0,1.162-1.628L18.721,23l5.86-4.186a1,1,0,0,0,.233-1.4Z" fill="#f5f5f5"/>
          <g id="Group_1202637" data-name="Group 1202637">
            <path id="Shape-10" data-name="Shape" d="M42,6h7a1,1,0,0,0,0-2H42a1,1,0,0,0,0,2Z"/>
            <path id="Shape-11" data-name="Shape" d="M8,33H26a3,3,0,0,0,3-3V16a3,3,0,0,0-3-3H8a3,3,0,0,0-3,3V30A3,3,0,0,0,8,33ZM7,16a1,1,0,0,1,1-1H26a1,1,0,0,1,1,1V30a1,1,0,0,1-1,1H8a1,1,0,0,1-1-1Z"/>
            <path id="Shape-12" data-name="Shape" d="M6,37h6a1,1,0,0,0,0-2H6a1,1,0,0,0,0,2Z"/>
            <path id="Shape-13" data-name="Shape" d="M20,35H16a1,1,0,0,0,0,2h4a1,1,0,0,0,0-2Z"/>
            <path id="Shape-14" data-name="Shape" d="M26,35H24a1,1,0,0,0,0,2h2a1,1,0,0,0,0-2Z"/>
            <path id="Shape-15" data-name="Shape" d="M18,39H6a1,1,0,0,0,0,2H18a1,1,0,0,0,0-2Z"/>
            <path id="Shape-16" data-name="Shape" d="M54,31.53V3a3,3,0,0,0-3-3H3A3,3,0,0,0,0,3V45a3,3,0,0,0,3,3H28.527A15.989,15.989,0,1,0,54,31.53ZM3,2H51a1,1,0,0,1,1,1V8H2V3A1,1,0,0,1,3,2ZM3,46a1,1,0,0,1-1-1V10H52V30.165a15.881,15.881,0,0,0-4-1.638V27a4,4,0,0,0-8,0v1.527A15.851,15.851,0,0,0,28.139,46ZM46,28.139a14.458,14.458,0,0,0-4,0V27a2,2,0,0,1,4,0ZM44,58A14,14,0,1,1,58,44,14,14,0,0,1,44,58Z"/>
            <path id="Shape-17" data-name="Shape" d="M44,32A12,12,0,1,0,56,44,12,12,0,0,0,44,32Zm0,22A10,10,0,1,1,54,44,10,10,0,0,1,44,54Z"/>
            <path id="Shape-18" data-name="Shape" d="M49.515,46.143,45,43.434V37a1,1,0,0,0-2,0v7a1,1,0,0,0,.485.857l5,3a1,1,0,1,0,1.03-1.714Z"/>
            <path id="Shape-19" data-name="Shape" d="M33,15h6a1,1,0,0,0,0-2H33a1,1,0,0,0,0,2Z"/>
            <path id="Shape-20" data-name="Shape" d="M44,15h4a1,1,0,0,0,0-2H44a1,1,0,0,0,0,2Z"/>
            <path id="Shape-21" data-name="Shape" d="M33,19H48a1,1,0,0,0,0-2H33a1,1,0,0,0,0,2Z"/>
          </g>
        </g>
      </g>
    </g>
  </g>
</svg>
